External Loads File
version=1
nRows=38
nColumns=13
Range=1.000000e-02-10 seconds
endheader
time 	forceRightX 	forceRightY 	forceRightZ 	pointRightX 	pointRightY 	pointRightZ 	forceLeftX 	forceLeftY 	forceLeftZ 	pointLeftX 	pointLeftY 	pointLeftZ 		
0.010000 -2.459664 201.891260 -3.133891 0.494329 0.267630 -0.095737 248.108013 3771.552954 -55.027913 0.187864 0.329813 -0.335152
0.020000 -2.726655 201.633003 -3.133113 0.490755 0.256163 -0.095737 241.196000 3768.701713 -55.066731 0.192292 0.341207 -0.335189
0.030000 -14.720554 198.646854 -3.230631 0.486401 0.242674 -0.095716 238.459424 3766.197413 -55.060949 0.197286 0.352459 -0.335143
0.040000 -42.770075 191.881169 -3.462042 0.481216 0.230663 -0.095684 222.271418 3765.397580 -55.242244 0.203086 0.363518 -0.335199
0.050000 -93.841012 179.245404 -3.878504 0.475243 0.219035 -0.095628 233.154611 3763.822045 -55.087864 0.209664 0.374346 -0.335300
0.060000 -172.589775 158.554307 -4.502102 0.468467 0.207929 -0.095547 223.199698 3764.111406 -55.211365 0.216396 0.384830 -0.335023
0.070000 34.207710 296.075590 -4.143653 0.460947 0.197247 -0.095478 3620.446536 1051.069438 27.134984 0.224099 0.395061 -0.335040
0.080000 3.312159 373.038645 -5.696594 0.452801 0.187070 -0.095356 3690.348661 770.475790 32.285630 0.232352 0.404773 -0.335012
0.090000 -8.917711 437.713321 -6.837353 0.444033 0.177645 -0.095322 3742.414660 453.775230 37.778187 0.241216 0.414185 -0.334965
0.100000 -13.226805 483.639882 -7.595097 0.434704 0.169010 -0.095225 3765.516442 177.884931 42.296820 0.250415 0.422894 -0.334890
0.110000 -14.465940 512.869712 -8.059382 0.424919 0.160925 -0.095190 3769.003823 -67.901856 46.117982 0.260170 0.431028 -0.334965
0.120000 -7.835290 530.174030 -8.246173 0.414772 0.153815 -0.095139 3753.495363 -347.280038 50.228505 0.270293 0.438597 -0.334993
0.130000 -6.960257 537.309446 -8.345430 0.404230 0.147434 -0.095154 3725.474531 -574.076510 53.380844 0.280900 0.445305 -0.335085
0.140000 13.716028 536.731967 -8.089280 0.393463 0.142005 -0.095192 3652.221717 -932.419661 58.015039 0.291802 0.451262 -0.335140
0.150000 17.544988 528.832576 -7.922021 0.382229 0.137494 -0.095059 3582.471226 -1171.901132 60.863387 0.302782 0.456498 -0.335318
0.160000 25.168002 514.032883 -7.603282 0.370921 0.133815 -0.095061 3485.898007 -1433.704655 63.734204 0.314624 0.460907 -0.336937
0.170000 27.139867 494.000722 -7.271666 0.359356 0.131194 -0.094946 3388.250734 -1651.363106 65.913359 0.325431 0.464489 -0.335832
0.180000 42.505542 468.787400 -6.700202 0.347669 0.129222 -0.094862 3221.480870 -1957.143406 68.620918 0.336920 0.467213 -0.335835
0.190000 64.240593 439.194954 -5.985229 0.335999 0.128498 -0.094826 2984.548378 -2302.717246 71.101299 0.348388 0.468911 -0.335885
0.200000 55.889231 411.382052 -5.657425 0.324277 0.128555 -0.094695 2877.982403 -2434.889502 71.859276 0.359741 0.469969 -0.335971
0.210000 63.633861 380.296296 -5.086802 0.312597 0.129506 -0.094560 2662.997613 -2668.601799 72.882041 0.370936 0.469933 -0.335934
0.220000 65.071242 350.070756 -4.604835 0.301005 0.131484 -0.094479 2471.635140 -2847.001248 73.336763 0.382016 0.468733 -0.335973
0.230000 64.880971 320.806798 -4.157119 0.289677 0.134409 -0.094377 2278.090258 -3004.293771 73.440824 0.392908 0.466868 -0.336016
0.240000 65.527704 292.734593 -3.717720 0.278417 0.138196 -0.094326 2056.386259 -3160.326520 73.188757 0.403628 0.463939 -0.335876
0.250000 67.825116 265.968597 -3.278665 0.267658 0.142802 -0.094357 1785.306192 -3321.100865 72.419109 0.413884 0.460027 -0.335848
0.260000 65.521364 242.351286 -2.943053 0.257279 0.148151 -0.094452 1540.100074 -3441.704295 71.341182 0.423679 0.455161 -0.335897
0.270000 60.374584 221.679499 -2.686734 0.247398 0.154350 -0.094527 1315.291344 -3533.719533 70.067590 0.432981 0.449637 -0.335875
0.280000 56.617625 202.906676 -2.442995 0.237857 0.161275 -0.094457 1057.331072 -3619.292655 68.298475 0.441847 0.443221 -0.335880
0.290000 52.136388 186.830291 -2.249380 0.228929 0.169011 -0.094441 808.744827 -3682.851429 66.302951 0.450115 0.436071 -0.335858
0.300000 48.457633 172.866402 -2.078652 0.220802 0.177319 -0.094479 550.724833 -3730.265491 63.946351 0.457752 0.427929 -0.335919
0.310000 47.366048 159.930900 -1.892798 0.213223 0.186021 -0.094502 242.455560 -3763.026302 60.763493 0.464739 0.419118 -0.335998
0.320000 45.476306 147.999084 -1.731922 0.206425 0.195580 -0.094486 -47.935272 -3770.684659 57.408445 0.471166 0.409722 -0.336094
0.330000 41.999464 136.609341 -1.598362 0.200529 0.205674 -0.094507 -300.610124 -3759.166060 54.209562 0.476816 0.399662 -0.336061
0.340000 38.508010 124.759484 -1.457902 0.195401 0.216079 -0.094441 -565.572215 -3728.656980 50.571720 0.481903 0.388947 -0.336022
0.350000 33.683463 112.607438 -1.328738 0.191262 0.226822 -0.094506 -809.399326 -3683.507773 46.961511 0.486385 0.377830 -0.336165
0.360000 28.448881 99.912826 -1.196134 0.187927 0.237855 -0.094488 -1062.943074 -3618.506328 42.929833 0.490094 0.366085 -0.336402
0.370000 22.648188 87.195372 -1.069949 0.185443 0.249382 -0.094391 -1322.218372 -3531.989651 38.498772 0.492746 0.354238 -0.335600
0.380000 17.072182 75.303634 -0.953774 0.183836 0.260956 -0.094264 -1611.242279 -3409.815179 33.163636 0.495546 0.341899 -0.337187
